<?xml version="1.0" encoding="UTF-8" standalone="no"?>
<svg
   xmlns:dc="http://purl.org/dc/elements/1.1/"
   xmlns:cc="http://creativecommons.org/ns#"
   xmlns:rdf="http://www.w3.org/1999/02/22-rdf-syntax-ns#"
   xmlns:svg="http://www.w3.org/2000/svg"
   xmlns="http://www.w3.org/2000/svg"
   xmlns:sodipodi="http://sodipodi.sourceforge.net/DTD/sodipodi-0.dtd"
   xmlns:inkscape="http://www.inkscape.org/namespaces/inkscape"
   inkscape:export-ydpi="96"
   inkscape:export-xdpi="96"
   inkscape:export-filename="/home/jake/code/eyedye/assets/logo.png"
   sodipodi:docname="logo.svg"
   inkscape:version="1.0 (4035a4fb49, 2020-05-01)"
   id="svg8"
   version="1.1"
   viewBox="0 0 52.916665 52.916668"
   height="200"
   width="200">
  <defs
     id="defs2">
    <meshgradient
       gradientTransform="matrix(1.7404206,0,0,1.7404206,29.89235,4.5820059)"
       y="5e-07"
       x="0"
       gradientUnits="userSpaceOnUse"
       id="meshgradient861"
       inkscape:collect="always">
      <meshrow
         id="meshrow1171">
        <meshpatch
           id="meshpatch1173">
          <stop
             id="stop1175"
             style="stop-color:#ff9227;stop-opacity:1"
             path="c 8.58096,-6.26483  17.8719,-4.42193  26.4583,0" />
          <stop
             id="stop1177"
             style="stop-color:#e2ff1f;stop-opacity:1"
             path="c 6.50147,9.43122  5.3727,17.0489  0,26.4583" />
          <stop
             id="stop1179"
             style="stop-color:#1cfeff;stop-opacity:1"
             path="c -7.06842,4.07324  -22.4313,3.33245  -26.4583,0" />
          <stop
             id="stop1181"
             style="stop-color:#ff0cf2;stop-opacity:1"
             path="c -4.21198,-10.8579  -5.02296,-16.0928  0,-26.4583" />
        </meshpatch>
      </meshrow>
    </meshgradient>
    <filter
       inkscape:collect="always"
       style="color-interpolation-filters:sRGB"
       id="filter1078"
       x="-0.055493593"
       width="1.1109872"
       y="-0.11285168"
       height="1.2257034">
      <feGaussianBlur
         inkscape:collect="always"
         stdDeviation="4.3078889"
         id="feGaussianBlur1080" />
    </filter>
  </defs>
  <sodipodi:namedview
     inkscape:guide-bbox="true"
     showguides="false"
     units="px"
     inkscape:pagecheckerboard="true"
     showgrid="false"
     inkscape:document-rotation="0"
     inkscape:current-layer="g871"
     inkscape:document-units="mm"
     inkscape:cy="155.58626"
     inkscape:cx="105.07021"
     inkscape:zoom="2.7169074"
     inkscape:pageshadow="2"
     inkscape:pageopacity="0.0"
     borderopacity="1.0"
     bordercolor="#666666"
     pagecolor="#ffffff"
     id="base">
    <sodipodi:guide
       id="guide851"
       orientation="0,100"
       position="0,26.458333" />
    <sodipodi:guide
       id="guide853"
       orientation="100,0"
       position="26.458333,26.458333" />
    <sodipodi:guide
       id="guide855"
       orientation="0,-100"
       position="26.458333,0" />
    <sodipodi:guide
       id="guide857"
       orientation="-100,0"
       position="0,0" />
    <sodipodi:guide
       id="guide1332"
       orientation="0.70710678,-0.70710678"
       position="26.458333,26.458334" />
    <sodipodi:guide
       id="guide1334"
       orientation="0.70710678,0.70710678"
       position="0,26.458333" />
  </sodipodi:namedview>
  <metadata
     id="metadata5">
    <rdf:RDF>
      <cc:Work
         rdf:about="">
        <dc:format>image/svg+xml</dc:format>
        <dc:type
           rdf:resource="http://purl.org/dc/dcmitype/StillImage" />
        <dc:title />
      </cc:Work>
    </rdf:RDF>
  </metadata>
  <g
     id="layer1"
     inkscape:groupmode="layer"
     inkscape:label="Layer 1">
    <g
       id="g871"
       transform="matrix(1.0598549,0,0,1.0598549,-29.625649,-4.387856)"
       style="stroke-width:0.943525">
      <ellipse
         ry="15.94172"
         rx="17.242643"
         cy="28.487185"
         cx="53.443172"
         id="path867"
         style="opacity:1;fill:#ffffff;fill-opacity:0.87150329;stroke-width:2.1701;stroke-linecap:round;stroke-linejoin:bevel;stroke-dashoffset:6.08506;paint-order:stroke fill markers" />
      <path
         id="path885"
         style="fill:#000000;fill-opacity:0.649965;stroke:none;stroke-width:3.85696;stroke-linecap:round;stroke-linejoin:bevel;stroke-dashoffset:6.08506;stroke-opacity:1;paint-order:stroke fill markers;filter:url(#filter1078)"
         d="M 6.880859,99.539062 C 6.858918,100.3566 6.845703,101.17698 6.845703,102 c 0,49.39157 43.762709,89.1543 93.154297,89.1543 49.39156,0 93.1543,-39.76273 93.1543,-89.1543 0,-0.82302 -0.0132,-1.6434 -0.0352,-2.460938 h -9.34766 c 0.0194,0.637868 0.0292,1.275948 0.0293,1.914058 6.3e-4,38.72854 -38.83902,70.12463 -81.8164,70.125 -42.977386,-3.7e-4 -81.817045,-31.39646 -81.816411,-70.125 1.01e-4,-0.63811 0.0099,-1.27619 0.0293,-1.914058 z"
         transform="matrix(0.23971241,0,0,0.24964109,28.94542,3.6407713)"
         sodipodi:nodetypes="csssccccccc" />
      <path
         d="m 52.916668,4.5818799 c -12.755473,0 -23.024444,10.2689701 -23.024444,23.0244381 0,12.75547 10.268971,23.024437 23.024444,23.024437 12.755467,0 23.024437,-10.268967 23.024437,-23.024437 0,-12.755468 -10.26897,-23.0244381 -23.024437,-23.0244381 z m 1.176993,10.1491061 c 0.816752,0.049 1.748238,0.336585 2.182484,1.028103 0.591915,0.94261 0.655921,0.362485 1.269349,0.09237 1.128126,-0.496803 2.571311,-0.185476 3.21624,0.765191 0.623976,0.919785 0.653928,0.366286 1.269342,0.09425 1.209243,-0.534572 2.567491,0.03445 3.387749,0.945175 1.494219,1.659024 1.395788,4.403301 -0.02076,5.909477 -1.283535,1.364777 0.675782,1.845947 1.422949,2.730935 0.823146,0.97498 1.62519,1.957127 1.372059,3.350052 -0.250359,1.377703 -1.449879,2.125486 -2.410531,2.923168 -3.077869,2.555723 -6.912436,4.293841 -10.937857,4.572285 -4.782813,0.33082 -9.876376,-0.695938 -13.646167,-3.800504 -1.404874,-1.156973 -3.107988,-2.632136 -2.895839,-4.649557 0.274194,-2.607471 2.509813,-4.371897 4.568512,-5.652214 1.12018,-0.696652 2.462259,-1.404217 2.746948,-2.787472 0.232833,-1.131279 0.393491,-2.441914 1.447451,-3.111645 0.620498,-0.394289 1.391838,-0.625701 2.157981,-0.510751 0.77716,0.116605 1.793432,1.403878 1.889417,1.078991 0.434801,-1.471652 1.384659,-2.992076 2.980649,-2.977827 z m -0.05747,1.764081 c -0.270142,0.177584 -0.384143,0.506202 -0.427824,0.812308 -0.09831,0.774243 -0.28685,1.546271 -0.649281,2.241853 -0.361799,0.748065 -0.851322,1.442386 -1.487969,1.981756 -0.226267,0.200743 -0.462272,0.389126 -0.699225,0.576723 l -0.03394,-0.0042 c -0.592166,0.378156 -1.25086,0.664289 -1.99307,0.810424 -0.541237,0.106564 -0.769935,0.05856 -0.817022,-0.07917 0.229135,-0.300988 0.44734,-0.60933 0.634202,-0.939526 0.266248,-0.467342 0.488783,-0.966935 0.602161,-1.494565 0.0914,-0.469209 0.049,-0.98733 -0.222394,-1.392794 -0.149843,-0.222217 -0.357718,-0.403105 -0.594621,-0.527716 -0.02798,-0.0047 -0.05631,-0.01044 -0.08483,-0.0063 -0.270144,0.177578 -0.383201,0.506197 -0.426888,0.812305 -0.0983,0.774244 -0.286839,1.546271 -0.649279,2.241848 -1.492483,3.035982 -3.794882,3.314432 -6.320338,5.743625 -1.498655,1.365649 -0.764553,2.998884 0.627603,4.107703 3.516826,2.801072 7.976368,4.049473 12.372112,3.9541 3.528674,-0.07658 7.063777,-1.189031 9.816462,-3.357591 1.030719,-0.811996 3.507,-1.727199 2.81951,-3.038134 -0.996501,-1.900184 -4.209682,-2.153342 -4.870064,-4.186865 -0.01458,-0.045 -0.0224,-0.08821 -0.03111,-0.13193 0.201204,-0.188439 0.406569,-0.372167 0.601221,-0.567294 0.680618,-0.693787 1.319523,-1.44014 1.799889,-2.288969 0.266244,-0.467342 0.487838,-0.965992 0.601216,-1.493623 0.0914,-0.469204 0.04994,-0.98733 -0.22145,-1.392794 -0.149841,-0.222213 -0.357718,-0.403104 -0.594622,-0.527715 -0.02798,-0.0046 -0.05627,-0.01044 -0.08483,-0.0063 -0.27014,0.177583 -0.384143,0.506198 -0.427827,0.812305 -0.0983,0.774246 -0.286846,1.546272 -0.64928,2.241854 -0.361797,0.748065 -0.851321,1.442388 -1.48797,1.98176 -0.218963,0.194264 -0.444507,0.380879 -0.673779,0.56258 -0.909835,0.277893 -1.876171,-0.361355 -2.71774,-0.800053 -0.08504,-0.04426 -0.113578,-0.131264 -0.106485,-0.243128 l -0.04803,-0.0053 c 0.595452,-0.627493 1.150539,-1.29799 1.577491,-2.05244 0.266246,-0.467343 0.488786,-0.965994 0.602166,-1.493623 0.0914,-0.469211 0.049,-0.987331 -0.222395,-1.392795 -0.149843,-0.222217 -0.35772,-0.403104 -0.594627,-0.527715 -0.02798,-0.0047 -0.05629,-0.01044 -0.08483,-0.0063 -0.270143,0.177579 -0.384142,0.506197 -0.427825,0.812305 -0.09831,0.774244 -0.285907,1.546271 -0.648337,2.241848 -0.3618,0.74807 -0.85132,1.442394 -1.487972,1.981766 -0.09929,0.08806 -0.204467,0.16937 -0.306264,0.254434 l -1.654765,-0.190448 c -0.65682,0.07704 -1.307765,0.124346 -1.949722,-0.01227 0,0 0.138538,-0.163581 0.164911,-0.193181 l -0.120612,-0.01425 c 0.03202,-0.03186 0.0652,-0.06228 0.09707,-0.09425 0.680619,-0.693784 1.320465,-1.440138 1.800834,-2.288967 0.266244,-0.467347 0.487839,-0.965999 0.601218,-1.493628 0.0914,-0.469207 0.049,-0.988265 -0.222396,-1.393734 -0.149842,-0.222213 -0.356774,-0.40216 -0.593677,-0.526771 -0.02798,-0.0047 -0.0563,-0.01044 -0.08483,-0.0063 z m -0.671894,7.685808 c 3.224403,0.04091 6.335555,1.233901 9.037138,3.087141 1.165302,0.799377 1.961248,2.054407 0.648337,3.082429 -3.150518,2.466882 -7.246005,3.476234 -11.189465,3.129544 -3.24272,-0.285089 -6.673953,-0.922395 -9.109696,-3.288804 -1.382483,-1.343135 0.492403,-2.678186 1.469122,-3.456541 2.580392,-2.056335 5.955135,-2.594235 9.144567,-2.553769 z m -1.302329,0.734094 c -0.596642,0.0032 -1.17756,0.183985 -1.770673,0.237469 -1.913506,0.172556 -3.07687,2.119583 -3.053217,3.861749 0.01643,1.212554 0.384734,2.880065 1.664193,3.256767 1.658607,0.488395 3.441717,0.544825 5.174443,0.485306 1.435845,-0.04932 3.191687,-0.192767 3.765628,-1.827217 0.582787,-1.659626 0.930032,-4.168344 -0.679431,-5.165961 -1.468489,-0.910247 -3.379961,-0.8565 -5.100943,-0.848113 z m 0.926331,1.981761 c 0.958836,-0.02098 1.792232,0.826621 1.755598,1.81402 -0.06352,1.711191 -2.511215,2.604324 -3.535699,1.151552 -0.901395,-1.278225 0.389559,-2.935174 1.780101,-2.965572 z"
         style="fill:url(#meshgradient861);fill-opacity:1;stroke:none;stroke-width:0.943514;stroke-linecap:round;stroke-linejoin:bevel;stroke-dashoffset:6.08506;stroke-opacity:1;paint-order:stroke fill markers"
         id="rect859" />
    </g>
    <g
       transform="matrix(0.90829325,0,0,0.90829325,1.1610341,0.86010175)"
       id="g1225"
       style="opacity:1;fill:#000000;fill-opacity:1;stroke-width:1.10097" />
    <g
       inkscape:transform-center-y="-1.4237514"
       inkscape:transform-center-x="-0.27007378"
       transform="translate(116.96568,0.48859555)"
       id="g1330">
      <path
         id="path1321"
         style="color:#000000;font-style:normal;font-variant:normal;font-weight:normal;font-stretch:normal;font-size:medium;line-height:normal;font-family:sans-serif;font-variant-ligatures:normal;font-variant-position:normal;font-variant-caps:normal;font-variant-numeric:normal;font-variant-alternates:normal;font-variant-east-asian:normal;font-feature-settings:normal;font-variation-settings:normal;text-indent:0;text-align:start;text-decoration:none;text-decoration-line:none;text-decoration-style:solid;text-decoration-color:#000000;letter-spacing:normal;word-spacing:normal;text-transform:none;writing-mode:lr-tb;direction:ltr;text-orientation:mixed;dominant-baseline:auto;baseline-shift:baseline;text-anchor:start;white-space:normal;shape-padding:0;shape-margin:0;inline-size:0;clip-rule:nonzero;display:inline;overflow:visible;visibility:visible;isolation:auto;mix-blend-mode:normal;color-interpolation:sRGB;color-interpolation-filters:linearRGB;solid-color:#000000;solid-opacity:1;vector-effect:none;fill:#ffffff;fill-opacity:1;fill-rule:nonzero;stroke:#ffffff;stroke-width:3;stroke-linecap:round;stroke-linejoin:bevel;stroke-miterlimit:4;stroke-dasharray:none;stroke-dashoffset:6.08506;stroke-opacity:1;paint-order:stroke fill markers;color-rendering:auto;image-rendering:auto;shape-rendering:auto;text-rendering:auto;enable-background:accumulate;stop-color:#000000"
         d="m 13.374377,6.3608521 c -0.14814,0.097382 -0.210138,0.2775884 -0.234094,0.4454506 -0.05391,0.4245801 -0.157301,0.8479412 -0.356051,1.2293825 C 12.58583,8.4459103 12.317386,8.827177 11.968261,9.1229573 11.745462,9.3206225 11.509692,9.502536 11.269596,9.6784788 10.827347,9.7440288 10.386882,9.8227104 9.9533973,9.9301431 10.106493,9.7369232 10.251291,9.5375123 10.37301,9.3224283 10.519013,9.0661465 10.641048,8.7926975 10.703222,8.5033569 10.753332,8.2460543 10.730102,7.9619278 10.581266,7.7395791 10.499096,7.617721 10.3851,7.5185256 10.255188,7.4501911 c -0.01534,-0.0027 -0.03087,-0.00571 -0.04651,-0.00362 -0.14814,0.097382 -0.2106547,0.2775884 -0.2346107,0.4454509 -0.05391,0.4245798 -0.156782,0.8479412 -0.355534,1.2293822 -0.1984018,0.4102254 -0.4668457,0.7909759 -0.815971,1.0867548 -0.09963,0.08839 -0.2026838,0.187072 -0.3064412,0.278019 -0.3678529,0.193086 -0.7747392,0.44098 -1.2402344,0.769979 -0.6619589,0.467856 -1.6360166,1.225734 -1.6831013,2.029334 -0.025792,0.440192 0.9048191,1.224564 1.532723,1.682585 0.4384834,0.319848 0.7717681,0.513998 1.2609049,0.743623 0.518419,0.227916 1.0456008,0.447976 1.601453,0.566374 0.4083257,0.09312 0.8206717,0.167215 1.2314487,0.248564 1.036028,0.120426 2.089506,0.166542 3.124357,0.0098 0.936448,-0.132572 1.860173,-0.393209 2.703711,-0.825789 0.610136,-0.303984 1.278873,-0.652646 1.812809,-1.075387 0.311679,-0.261341 1.400534,-0.982622 1.430404,-1.278475 0.03079,-0.304924 -1.045798,-1.246297 -1.865519,-1.897042 -0.285576,-0.227781 -0.58326,-0.441538 -0.895036,-0.632002 0.114607,-0.107052 0.231359,-0.21197 0.342098,-0.322978 0.373236,-0.380456 0.724114,-0.7892247 0.987536,-1.2547032 0.146003,-0.2562818 0.267522,-0.5302475 0.329696,-0.8195884 0.05011,-0.2573025 0.02688,-0.5414288 -0.121956,-0.7637777 -0.08217,-0.1218573 -0.196166,-0.2205369 -0.326079,-0.2888711 -0.01534,-0.0027 -0.03087,-0.00571 -0.04651,-0.00362 -0.148139,0.097382 -0.210137,0.2770716 -0.234094,0.4449339 -0.05391,0.42458 -0.1573,0.8479411 -0.35605,1.2293824 -0.198403,0.4102251 -0.466846,0.7914913 -0.815971,1.0872721 -0.134039,0.118918 -0.272953,0.231664 -0.413928,0.342098 -0.506142,-0.238262 -1.035214,-0.423545 -1.577682,-0.5591391 0.344557,-0.3582164 0.666666,-0.7414487 0.912089,-1.175122 0.146003,-0.2562815 0.267522,-0.5302474 0.329696,-0.8195881 0.05011,-0.2573031 0.0274,-0.541429 -0.12144,-0.7637777 -0.08217,-0.1218579 -0.196164,-0.2205369 -0.326078,-0.2888713 -0.01534,-0.0027 -0.03087,-0.00622 -0.04651,-0.00413 -0.148141,0.097381 -0.210655,0.2775884 -0.234611,0.4454509 -0.05391,0.4245798 -0.156784,0.8479409 -0.355534,1.2293822 -0.198402,0.4102251 -0.466845,0.791492 -0.815971,1.0872721 -0.04831,0.04286 -0.09942,0.082487 -0.148828,0.1240234 -0.264458,-0.042286 -0.530238,-0.074951 -0.79685,-0.096118 -0.408768,-0.038193 -0.819115,-0.048982 -1.229383,-0.059945 0.0358,-0.035297 0.0725,-0.069831 0.108004,-0.10542 0.373236,-0.380456 0.723598,-0.7892246 0.98702,-1.2547039 0.146002,-0.2562813 0.268038,-0.5302475 0.330212,-0.8195882 0.05011,-0.2573025 0.02688,-0.541429 -0.121956,-0.7637774 -0.08217,-0.1218581 -0.196165,-0.2205374 -0.326078,-0.2888713 -0.01534,-0.0027 -0.03087,-0.00622 -0.04651,-0.00413 z" />
      <g
         id="g1266"
         transform="translate(0,3.7041668)">
        <g
           style="opacity:1;fill:#000000;fill-opacity:1"
           id="g1198">
          <path
             sodipodi:nodetypes="scssscsscccsccccsccssccccscccccc"
             d="M 11.849609,5.8925781 C 11.043394,6.0028409 10.232283,6.117112 9.4541503,6.3630589 8.8537561,6.569874 8.1647019,6.9098252 7.2561391,7.5519736 6.5941801,8.0198289 5.6200448,8.7775269 5.5729602,9.5811277 c -0.025792,0.4401913 0.904546,1.2246773 1.5324497,1.6826973 0.4384834,0.319849 0.7720498,0.514271 1.2611866,0.743897 0.5184192,0.227916 1.0452665,0.447884 1.6011184,0.566282 0.4083261,0.09312 0.8207271,0.167009 1.2315041,0.248358 1.036028,0.120426 2.089499,0.166744 3.12435,0.01002 0.936448,-0.132572 1.860338,-0.393393 2.703876,-0.825973 0.610136,-0.303984 1.278975,-0.652658 1.812911,-1.075399 0.311679,-0.261341 1.400572,-0.9825975 1.430442,-1.2784512 C 20.301583,9.3476348 19.224862,8.4062562 18.405141,7.7555123 17.96738,7.4063442 17.504569,7.0845586 16.999126,6.8406215 15.963525,6.3276619 14.822744,6.0444266 13.673109,5.9531546 13.126025,5.9020378 12.576104,5.8997209 12.027344,5.8808594 Z M 13.144531,6.8125 c 0.87038,0.095527 1.752842,0.1899682 2.579936,0.4943195 0.59886,0.2108508 1.197405,0.458099 1.703719,0.8404052 0.414741,0.313162 1.390148,0.8826176 1.312906,1.3265126 -0.153874,0.8842777 -1.904503,1.7029497 -2.759134,2.0157357 -0.531193,0.199915 -1.091046,0.309761 -1.649927,0.399295 -0.890192,0.117143 -1.792008,0.06745 -2.682129,-0.02391 C 10.896588,11.791244 10.13935,11.694756 9.4173606,11.458054 8.624952,11.233074 7.8095384,10.713908 7.3339844,10.283524 7.0944951,10.066783 6.838624,9.7590756 6.8378906,9.5644531 6.849609,9.3201816 7.0630633,8.979579 7.3315999,8.7602734 7.8378079,8.2588079 8.4921539,7.7764086 9.2617188,7.453125 9.9421897,7.1570689 10.672888,6.9875997 11.410384,6.9175956 c 0.52038,-0.053297 1.042962,-0.089339 1.565716,-0.106613 z"
             style="color:#000000;font-style:normal;font-variant:normal;font-weight:normal;font-stretch:normal;font-size:medium;line-height:normal;font-family:sans-serif;font-variant-ligatures:normal;font-variant-position:normal;font-variant-caps:normal;font-variant-numeric:normal;font-variant-alternates:normal;font-variant-east-asian:normal;font-feature-settings:normal;font-variation-settings:normal;text-indent:0;text-align:start;text-decoration:none;text-decoration-line:none;text-decoration-style:solid;text-decoration-color:#000000;letter-spacing:normal;word-spacing:normal;text-transform:none;writing-mode:lr-tb;direction:ltr;text-orientation:mixed;dominant-baseline:auto;baseline-shift:baseline;text-anchor:start;white-space:normal;shape-padding:0;shape-margin:0;inline-size:0;clip-rule:nonzero;display:inline;overflow:visible;visibility:visible;isolation:auto;mix-blend-mode:normal;color-interpolation:sRGB;color-interpolation-filters:linearRGB;solid-color:#000000;solid-opacity:1;vector-effect:none;fill:#000000;fill-opacity:1;fill-rule:nonzero;stroke:none;stroke-width:0.4;stroke-linecap:round;stroke-linejoin:bevel;stroke-miterlimit:4;stroke-dasharray:none;stroke-dashoffset:6.08506;stroke-opacity:1;paint-order:stroke fill markers;color-rendering:auto;image-rendering:auto;shape-rendering:auto;text-rendering:auto;enable-background:accumulate;stop-color:#000000;stop-opacity:1"
             id="path1200" />
        </g>
        <path
           sodipodi:nodetypes="cccccccccccccccccccccccc"
           d="M 12.262166,7.2135409 C 11.82602,7.2328038 11.39826,7.3272625 10.969551,7.4030243 10.52062,7.5295357 10.134767,7.8593046 9.9374268,8.2815891 9.7769632,8.5932677 9.6631431,8.9303894 9.6206514,9.2790982 c -0.026294,0.4861168 0.085009,0.9767698 0.315321,1.4054598 0.1194626,0.250378 0.3193486,0.482391 0.5933716,0.562953 0.288611,0.09471 0.595461,0.109228 0.894603,0.150885 0.426012,0.04681 0.851821,0.104677 1.280072,0.124112 0.589847,0.01664 1.179383,-0.03613 1.762531,-0.121569 0.398569,-0.06845 0.726225,-0.371163 0.891653,-0.731507 0.209586,-0.414593 0.314775,-0.8784802 0.331545,-1.3415559 0.0064,-0.4681926 -0.109989,-0.9360664 -0.330184,-1.348897 C 15.211257,7.7299019 14.940818,7.5785623 14.661595,7.5248491 14.132607,7.3849602 13.591753,7.290133 13.046907,7.2404261 12.785712,7.2213419 12.52415,7.2061138 12.262166,7.2135409 Z m 0.61879,1.0871688 c 0.251289,0.039178 0.49047,0.1653802 0.655222,0.3605133 0.194635,0.2349629 0.238304,0.5676215 0.162801,0.8572858 -0.06039,0.2391254 -0.217764,0.4434581 -0.412918,0.5899712 -0.271453,0.198498 -0.634822,0.288021 -0.961229,0.1864 -0.336049,-0.09511 -0.625584,-0.3763421 -0.685645,-0.7266513 -0.03872,-0.2374409 0.01207,-0.4887824 0.146428,-0.6890218 0.153886,-0.2389063 0.394185,-0.4133032 0.660495,-0.5075947 0.139374,-0.048932 0.28631,-0.081303 0.434846,-0.070902 z"
           style="fill:#000000;fill-opacity:1;stroke:none;stroke-width:1.00001;stroke-linecap:round;stroke-linejoin:bevel;stroke-dashoffset:6.08506;paint-order:stroke fill markers"
           id="path1193" />
        <path
           sodipodi:nodetypes="ccccccccccccccccccccccccccccccccccccccccccccccccccc"
           d="m 13.374481,2.6568746 c -0.14814,0.097382 -0.210463,0.2775471 -0.234419,0.4454095 -0.05391,0.4245799 -0.157111,0.8479357 -0.355861,1.229377 -0.198402,0.4102251 -0.46686,0.7912915 -0.815985,1.0870717 -0.315778,0.2801554 -0.652569,0.5350626 -1.000055,0.7744451 0.420516,-0.048203 0.842035,-0.077933 1.258131,-0.087785 0.110149,-0.1041545 0.218413,-0.210227 0.325436,-0.3175106 0.373236,-0.3804561 0.72373,-0.7894636 0.987152,-1.2549428 0.146002,-0.2562816 0.267745,-0.530005 0.329919,-0.8193457 0.05011,-0.2573026 0.02705,-0.5414467 -0.12179,-0.7637954 -0.08217,-0.121858 -0.196072,-0.2208541 -0.325985,-0.2891882 -0.01534,-0.0027 -0.0309,-0.00582 -0.04654,-0.00373 z m 2.650273,0.5064687 c -0.148141,0.097381 -0.210464,0.2775469 -0.23442,0.4454093 -0.05391,0.4245799 -0.157112,0.8479358 -0.355862,1.2293771 -0.198402,0.4102251 -0.466858,0.7912915 -0.815984,1.0870717 -0.128019,0.1135772 -0.260339,0.2220112 -0.394596,0.3279221 0.283095,0.046289 0.564143,0.103825 0.842295,0.1736543 0.04512,-0.044313 0.09116,-0.087668 0.135813,-0.1324272 0.373235,-0.3804561 0.723729,-0.7894639 0.987151,-1.2549429 0.146003,-0.2562816 0.267745,-0.5300049 0.329919,-0.8193456 0.05011,-0.2573029 0.02705,-0.5414467 -0.121789,-0.7637954 -0.08217,-0.1218579 -0.196072,-0.220854 -0.325986,-0.2891884 -0.01534,-0.0027 -0.0309,-0.00582 -0.04654,-0.00373 z M 10.208669,3.7423835 C 10.060529,3.8397655 9.9982055,4.0199306 9.9742495,4.187793 9.9203365,4.6123729 9.8171355,5.0357287 9.618383,5.4171699 9.4199813,5.8273951 9.1515234,6.2084615 8.8023982,6.5042416 8.6732708,6.6188026 8.5396751,6.7559275 8.4042077,6.8626944 8.862475,6.6666679 9.3424795,6.4898027 9.83335,6.3796451 c 0.200364,-0.2388299 0.385917,-0.489423 0.539718,-0.761197 0.146003,-0.2562817 0.267745,-0.530005 0.329919,-0.8193458 0.05011,-0.2573025 0.02705,-0.5414466 -0.12179,-0.7637953 -0.08217,-0.1218581 -0.196072,-0.220854 -0.325985,-0.2891884 -0.01534,-0.0027 -0.0309,-0.00582 -0.04654,-0.00373 z m 8.466356,-0.072572 c -0.14814,0.097382 -0.210463,0.2775471 -0.23442,0.4454095 -0.05391,0.4245799 -0.15711,0.8479357 -0.35586,1.2293769 -0.198403,0.4102252 -0.46686,0.7912916 -0.815985,1.0870718 -0.213834,0.1897112 -0.437805,0.367424 -0.667733,0.5369767 0.233217,0.1103644 0.458408,0.2370715 0.674018,0.3771591 0.198047,-0.1755787 0.39034,-0.3576456 0.577226,-0.5449865 0.373236,-0.3804561 0.72373,-0.789464 0.987152,-1.2549429 0.146003,-0.2562816 0.267745,-0.530005 0.329919,-0.8193458 0.05011,-0.2573027 0.02705,-0.5414466 -0.121789,-0.7637953 -0.08217,-0.1218578 -0.196072,-0.220854 -0.325985,-0.2891884 -0.01534,-0.0027 -0.0309,-0.00582 -0.04654,-0.00373 z"
           style="fill:#000000;fill-opacity:1;stroke:none;stroke-width:0.4;stroke-linecap:round;stroke-linejoin:bevel;stroke-miterlimit:4;stroke-dasharray:none;stroke-dashoffset:6.08506;stroke-opacity:1;paint-order:stroke fill markers"
           id="path1238" />
      </g>
    </g>
    <g
       transform="translate(-37.0925,37.388421)"
       style="opacity:1"
       id="g1363" />
  </g>
  <script
     id="mesh_polyfill"
     type="text/javascript">
!function(){const t=&quot;http://www.w3.org/2000/svg&quot;,e=&quot;http://www.w3.org/1999/xlink&quot;,s=&quot;http://www.w3.org/1999/xhtml&quot;,r=2;if(document.createElementNS(t,&quot;meshgradient&quot;).x)return;const n=(t,e,s,r)=&gt;{let n=new x(.5*(e.x+s.x),.5*(e.y+s.y)),o=new x(.5*(t.x+e.x),.5*(t.y+e.y)),i=new x(.5*(s.x+r.x),.5*(s.y+r.y)),a=new x(.5*(n.x+o.x),.5*(n.y+o.y)),h=new x(.5*(n.x+i.x),.5*(n.y+i.y)),l=new x(.5*(a.x+h.x),.5*(a.y+h.y));return[[t,o,a,l],[l,h,i,r]]},o=t=&gt;{let e=t[0].distSquared(t[1]),s=t[2].distSquared(t[3]),r=.25*t[0].distSquared(t[2]),n=.25*t[1].distSquared(t[3]),o=e&gt;s?e:s,i=r&gt;n?r:n;return 18*(o&gt;i?o:i)},i=(t,e)=&gt;Math.sqrt(t.distSquared(e)),a=(t,e)=&gt;t.scale(2/3).add(e.scale(1/3)),h=t=&gt;{let e,s,r,n,o,i,a,h=new g;return t.match(/(\w+\(\s*[^)]+\))+/g).forEach(t=&gt;{let l=t.match(/[\w.-]+/g),d=l.shift();switch(d){case&quot;translate&quot;:2===l.length?e=new g(1,0,0,1,l[0],l[1]):(console.error(&quot;mesh.js: translate does not have 2 arguments!&quot;),e=new g(1,0,0,1,0,0)),h=h.append(e);break;case&quot;scale&quot;:1===l.length?s=new g(l[0],0,0,l[0],0,0):2===l.length?s=new g(l[0],0,0,l[1],0,0):(console.error(&quot;mesh.js: scale does not have 1 or 2 arguments!&quot;),s=new g(1,0,0,1,0,0)),h=h.append(s);break;case&quot;rotate&quot;:if(3===l.length&amp;&amp;(e=new g(1,0,0,1,l[1],l[2]),h=h.append(e)),l[0]){r=l[0]*Math.PI/180;let t=Math.cos(r),e=Math.sin(r);Math.abs(t)&lt;1e-16&amp;&amp;(t=0),Math.abs(e)&lt;1e-16&amp;&amp;(e=0),a=new g(t,e,-e,t,0,0),h=h.append(a)}else console.error(&quot;math.js: No argument to rotate transform!&quot;);3===l.length&amp;&amp;(e=new g(1,0,0,1,-l[1],-l[2]),h=h.append(e));break;case&quot;skewX&quot;:l[0]?(r=l[0]*Math.PI/180,n=Math.tan(r),o=new g(1,0,n,1,0,0),h=h.append(o)):console.error(&quot;math.js: No argument to skewX transform!&quot;);break;case&quot;skewY&quot;:l[0]?(r=l[0]*Math.PI/180,n=Math.tan(r),i=new g(1,n,0,1,0,0),h=h.append(i)):console.error(&quot;math.js: No argument to skewY transform!&quot;);break;case&quot;matrix&quot;:6===l.length?h=h.append(new g(...l)):console.error(&quot;math.js: Incorrect number of arguments for matrix!&quot;);break;default:console.error(&quot;mesh.js: Unhandled transform type: &quot;+d)}}),h},l=t=&gt;{let e=[],s=t.split(/[ ,]+/);for(let t=0,r=s.length-1;t&lt;r;t+=2)e.push(new x(parseFloat(s[t]),parseFloat(s[t+1])));return e},d=(t,e)=&gt;{for(let s in e)t.setAttribute(s,e[s])},c=(t,e,s,r,n)=&gt;{let o,i,a=[0,0,0,0];for(let h=0;h&lt;3;++h)e[h]&lt;t[h]&amp;&amp;e[h]&lt;s[h]||t[h]&lt;e[h]&amp;&amp;s[h]&lt;e[h]?a[h]=0:(a[h]=.5*((e[h]-t[h])/r+(s[h]-e[h])/n),o=Math.abs(3*(e[h]-t[h])/r),i=Math.abs(3*(s[h]-e[h])/n),a[h]&gt;o?a[h]=o:a[h]&gt;i&amp;&amp;(a[h]=i));return a},u=[[1,0,0,0,0,0,0,0,0,0,0,0,0,0,0,0],[0,0,0,0,1,0,0,0,0,0,0,0,0,0,0,0],[-3,3,0,0,-2,-1,0,0,0,0,0,0,0,0,0,0],[2,-2,0,0,1,1,0,0,0,0,0,0,0,0,0,0],[0,0,0,0,0,0,0,0,1,0,0,0,0,0,0,0],[0,0,0,0,0,0,0,0,0,0,0,0,1,0,0,0],[0,0,0,0,0,0,0,0,-3,3,0,0,-2,-1,0,0],[0,0,0,0,0,0,0,0,2,-2,0,0,1,1,0,0],[-3,0,3,0,0,0,0,0,-2,0,-1,0,0,0,0,0],[0,0,0,0,-3,0,3,0,0,0,0,0,-2,0,-1,0],[9,-9,-9,9,6,3,-6,-3,6,-6,3,-3,4,2,2,1],[-6,6,6,-6,-3,-3,3,3,-4,4,-2,2,-2,-2,-1,-1],[2,0,-2,0,0,0,0,0,1,0,1,0,0,0,0,0],[0,0,0,0,2,0,-2,0,0,0,0,0,1,0,1,0],[-6,6,6,-6,-4,-2,4,2,-3,3,-3,3,-2,-1,-2,-1],[4,-4,-4,4,2,2,-2,-2,2,-2,2,-2,1,1,1,1]],f=t=&gt;{let e=[];for(let s=0;s&lt;16;++s){e[s]=0;for(let r=0;r&lt;16;++r)e[s]+=u[s][r]*t[r]}return e},p=(t,e,s)=&gt;{const r=e*e,n=s*s,o=e*e*e,i=s*s*s;return t[0]+t[1]*e+t[2]*r+t[3]*o+t[4]*s+t[5]*s*e+t[6]*s*r+t[7]*s*o+t[8]*n+t[9]*n*e+t[10]*n*r+t[11]*n*o+t[12]*i+t[13]*i*e+t[14]*i*r+t[15]*i*o},y=t=&gt;{let e=[],s=[],r=[];for(let s=0;s&lt;4;++s)e[s]=[],e[s][0]=n(t[0][s],t[1][s],t[2][s],t[3][s]),e[s][1]=[],e[s][1].push(...n(...e[s][0][0])),e[s][1].push(...n(...e[s][0][1])),e[s][2]=[],e[s][2].push(...n(...e[s][1][0])),e[s][2].push(...n(...e[s][1][1])),e[s][2].push(...n(...e[s][1][2])),e[s][2].push(...n(...e[s][1][3]));for(let t=0;t&lt;8;++t){s[t]=[];for(let r=0;r&lt;4;++r)s[t][r]=[],s[t][r][0]=n(e[0][2][t][r],e[1][2][t][r],e[2][2][t][r],e[3][2][t][r]),s[t][r][1]=[],s[t][r][1].push(...n(...s[t][r][0][0])),s[t][r][1].push(...n(...s[t][r][0][1])),s[t][r][2]=[],s[t][r][2].push(...n(...s[t][r][1][0])),s[t][r][2].push(...n(...s[t][r][1][1])),s[t][r][2].push(...n(...s[t][r][1][2])),s[t][r][2].push(...n(...s[t][r][1][3]))}for(let t=0;t&lt;8;++t){r[t]=[];for(let e=0;e&lt;8;++e)r[t][e]=[],r[t][e][0]=s[t][0][2][e],r[t][e][1]=s[t][1][2][e],r[t][e][2]=s[t][2][2][e],r[t][e][3]=s[t][3][2][e]}return r};class x{constructor(t,e){this.x=t||0,this.y=e||0}toString(){return`(x=${this.x}, y=${this.y})`}clone(){return new x(this.x,this.y)}add(t){return new x(this.x+t.x,this.y+t.y)}scale(t){return void 0===t.x?new x(this.x*t,this.y*t):new x(this.x*t.x,this.y*t.y)}distSquared(t){let e=this.x-t.x,s=this.y-t.y;return e*e+s*s}transform(t){let e=this.x*t.a+this.y*t.c+t.e,s=this.x*t.b+this.y*t.d+t.f;return new x(e,s)}}class g{constructor(t,e,s,r,n,o){void 0===t?(this.a=1,this.b=0,this.c=0,this.d=1,this.e=0,this.f=0):(this.a=t,this.b=e,this.c=s,this.d=r,this.e=n,this.f=o)}toString(){return`affine: ${this.a} ${this.c} ${this.e} \n       ${this.b} ${this.d} ${this.f}`}append(t){t instanceof g||console.error(&quot;mesh.js: argument to Affine.append is not affine!&quot;);let e=this.a*t.a+this.c*t.b,s=this.b*t.a+this.d*t.b,r=this.a*t.c+this.c*t.d,n=this.b*t.c+this.d*t.d,o=this.a*t.e+this.c*t.f+this.e,i=this.b*t.e+this.d*t.f+this.f;return new g(e,s,r,n,o,i)}}class w{constructor(t,e){this.nodes=t,this.colors=e}paintCurve(t,e){if(o(this.nodes)&gt;r){const s=n(...this.nodes);let r=[[],[]],o=[[],[]];for(let t=0;t&lt;4;++t)r[0][t]=this.colors[0][t],r[1][t]=(this.colors[0][t]+this.colors[1][t])/2,o[0][t]=r[1][t],o[1][t]=this.colors[1][t];let i=new w(s[0],r),a=new w(s[1],o);i.paintCurve(t,e),a.paintCurve(t,e)}else{let s=Math.round(this.nodes[0].x);if(s&gt;=0&amp;&amp;s&lt;e){let r=4*(~~this.nodes[0].y*e+s);t[r]=Math.round(this.colors[0][0]),t[r+1]=Math.round(this.colors[0][1]),t[r+2]=Math.round(this.colors[0][2]),t[r+3]=Math.round(this.colors[0][3])}}}}class m{constructor(t,e){this.nodes=t,this.colors=e}split(){let t=[[],[],[],[]],e=[[],[],[],[]],s=[[[],[]],[[],[]]],r=[[[],[]],[[],[]]];for(let s=0;s&lt;4;++s){const r=n(this.nodes[0][s],this.nodes[1][s],this.nodes[2][s],this.nodes[3][s]);t[0][s]=r[0][0],t[1][s]=r[0][1],t[2][s]=r[0][2],t[3][s]=r[0][3],e[0][s]=r[1][0],e[1][s]=r[1][1],e[2][s]=r[1][2],e[3][s]=r[1][3]}for(let t=0;t&lt;4;++t)s[0][0][t]=this.colors[0][0][t],s[0][1][t]=this.colors[0][1][t],s[1][0][t]=(this.colors[0][0][t]+this.colors[1][0][t])/2,s[1][1][t]=(this.colors[0][1][t]+this.colors[1][1][t])/2,r[0][0][t]=s[1][0][t],r[0][1][t]=s[1][1][t],r[1][0][t]=this.colors[1][0][t],r[1][1][t]=this.colors[1][1][t];return[new m(t,s),new m(e,r)]}paint(t,e){let s,n=!1;for(let t=0;t&lt;4;++t)if((s=o([this.nodes[0][t],this.nodes[1][t],this.nodes[2][t],this.nodes[3][t]]))&gt;r){n=!0;break}if(n){let s=this.split();s[0].paint(t,e),s[1].paint(t,e)}else{new w([...this.nodes[0]],[...this.colors[0]]).paintCurve(t,e)}}}class b{constructor(t){this.readMesh(t),this.type=t.getAttribute(&quot;type&quot;)||&quot;bilinear&quot;}readMesh(t){let e=[[]],s=[[]],r=Number(t.getAttribute(&quot;x&quot;)),n=Number(t.getAttribute(&quot;y&quot;));e[0][0]=new x(r,n);let o=t.children;for(let t=0,r=o.length;t&lt;r;++t){e[3*t+1]=[],e[3*t+2]=[],e[3*t+3]=[],s[t+1]=[];let r=o[t].children;for(let n=0,o=r.length;n&lt;o;++n){let o=r[n].children;for(let r=0,i=o.length;r&lt;i;++r){let i=r;0!==t&amp;&amp;++i;let h,d=o[r].getAttribute(&quot;path&quot;),c=&quot;l&quot;;null!=d&amp;&amp;(c=(h=d.match(/\s*([lLcC])\s*(.*)/))[1]);let u=l(h[2]);switch(c){case&quot;l&quot;:0===i?(e[3*t][3*n+3]=u[0].add(e[3*t][3*n]),e[3*t][3*n+1]=a(e[3*t][3*n],e[3*t][3*n+3]),e[3*t][3*n+2]=a(e[3*t][3*n+3],e[3*t][3*n])):1===i?(e[3*t+3][3*n+3]=u[0].add(e[3*t][3*n+3]),e[3*t+1][3*n+3]=a(e[3*t][3*n+3],e[3*t+3][3*n+3]),e[3*t+2][3*n+3]=a(e[3*t+3][3*n+3],e[3*t][3*n+3])):2===i?(0===n&amp;&amp;(e[3*t+3][3*n+0]=u[0].add(e[3*t+3][3*n+3])),e[3*t+3][3*n+1]=a(e[3*t+3][3*n],e[3*t+3][3*n+3]),e[3*t+3][3*n+2]=a(e[3*t+3][3*n+3],e[3*t+3][3*n])):(e[3*t+1][3*n]=a(e[3*t][3*n],e[3*t+3][3*n]),e[3*t+2][3*n]=a(e[3*t+3][3*n],e[3*t][3*n]));break;case&quot;L&quot;:0===i?(e[3*t][3*n+3]=u[0],e[3*t][3*n+1]=a(e[3*t][3*n],e[3*t][3*n+3]),e[3*t][3*n+2]=a(e[3*t][3*n+3],e[3*t][3*n])):1===i?(e[3*t+3][3*n+3]=u[0],e[3*t+1][3*n+3]=a(e[3*t][3*n+3],e[3*t+3][3*n+3]),e[3*t+2][3*n+3]=a(e[3*t+3][3*n+3],e[3*t][3*n+3])):2===i?(0===n&amp;&amp;(e[3*t+3][3*n+0]=u[0]),e[3*t+3][3*n+1]=a(e[3*t+3][3*n],e[3*t+3][3*n+3]),e[3*t+3][3*n+2]=a(e[3*t+3][3*n+3],e[3*t+3][3*n])):(e[3*t+1][3*n]=a(e[3*t][3*n],e[3*t+3][3*n]),e[3*t+2][3*n]=a(e[3*t+3][3*n],e[3*t][3*n]));break;case&quot;c&quot;:0===i?(e[3*t][3*n+1]=u[0].add(e[3*t][3*n]),e[3*t][3*n+2]=u[1].add(e[3*t][3*n]),e[3*t][3*n+3]=u[2].add(e[3*t][3*n])):1===i?(e[3*t+1][3*n+3]=u[0].add(e[3*t][3*n+3]),e[3*t+2][3*n+3]=u[1].add(e[3*t][3*n+3]),e[3*t+3][3*n+3]=u[2].add(e[3*t][3*n+3])):2===i?(e[3*t+3][3*n+2]=u[0].add(e[3*t+3][3*n+3]),e[3*t+3][3*n+1]=u[1].add(e[3*t+3][3*n+3]),0===n&amp;&amp;(e[3*t+3][3*n+0]=u[2].add(e[3*t+3][3*n+3]))):(e[3*t+2][3*n]=u[0].add(e[3*t+3][3*n]),e[3*t+1][3*n]=u[1].add(e[3*t+3][3*n]));break;case&quot;C&quot;:0===i?(e[3*t][3*n+1]=u[0],e[3*t][3*n+2]=u[1],e[3*t][3*n+3]=u[2]):1===i?(e[3*t+1][3*n+3]=u[0],e[3*t+2][3*n+3]=u[1],e[3*t+3][3*n+3]=u[2]):2===i?(e[3*t+3][3*n+2]=u[0],e[3*t+3][3*n+1]=u[1],0===n&amp;&amp;(e[3*t+3][3*n+0]=u[2])):(e[3*t+2][3*n]=u[0],e[3*t+1][3*n]=u[1]);break;default:console.error(&quot;mesh.js: &quot;+c+&quot; invalid path type.&quot;)}if(0===t&amp;&amp;0===n||r&gt;0){let e=window.getComputedStyle(o[r]).stopColor.match(/^rgb\s*\(\s*(\d+)\s*,\s*(\d+)\s*,\s*(\d+)\s*\)$/i),a=window.getComputedStyle(o[r]).stopOpacity,h=255;a&amp;&amp;(h=Math.floor(255*a)),e&amp;&amp;(0===i?(s[t][n]=[],s[t][n][0]=Math.floor(e[1]),s[t][n][1]=Math.floor(e[2]),s[t][n][2]=Math.floor(e[3]),s[t][n][3]=h):1===i?(s[t][n+1]=[],s[t][n+1][0]=Math.floor(e[1]),s[t][n+1][1]=Math.floor(e[2]),s[t][n+1][2]=Math.floor(e[3]),s[t][n+1][3]=h):2===i?(s[t+1][n+1]=[],s[t+1][n+1][0]=Math.floor(e[1]),s[t+1][n+1][1]=Math.floor(e[2]),s[t+1][n+1][2]=Math.floor(e[3]),s[t+1][n+1][3]=h):3===i&amp;&amp;(s[t+1][n]=[],s[t+1][n][0]=Math.floor(e[1]),s[t+1][n][1]=Math.floor(e[2]),s[t+1][n][2]=Math.floor(e[3]),s[t+1][n][3]=h))}}e[3*t+1][3*n+1]=new x,e[3*t+1][3*n+2]=new x,e[3*t+2][3*n+1]=new x,e[3*t+2][3*n+2]=new x,e[3*t+1][3*n+1].x=(-4*e[3*t][3*n].x+6*(e[3*t][3*n+1].x+e[3*t+1][3*n].x)+-2*(e[3*t][3*n+3].x+e[3*t+3][3*n].x)+3*(e[3*t+3][3*n+1].x+e[3*t+1][3*n+3].x)+-1*e[3*t+3][3*n+3].x)/9,e[3*t+1][3*n+2].x=(-4*e[3*t][3*n+3].x+6*(e[3*t][3*n+2].x+e[3*t+1][3*n+3].x)+-2*(e[3*t][3*n].x+e[3*t+3][3*n+3].x)+3*(e[3*t+3][3*n+2].x+e[3*t+1][3*n].x)+-1*e[3*t+3][3*n].x)/9,e[3*t+2][3*n+1].x=(-4*e[3*t+3][3*n].x+6*(e[3*t+3][3*n+1].x+e[3*t+2][3*n].x)+-2*(e[3*t+3][3*n+3].x+e[3*t][3*n].x)+3*(e[3*t][3*n+1].x+e[3*t+2][3*n+3].x)+-1*e[3*t][3*n+3].x)/9,e[3*t+2][3*n+2].x=(-4*e[3*t+3][3*n+3].x+6*(e[3*t+3][3*n+2].x+e[3*t+2][3*n+3].x)+-2*(e[3*t+3][3*n].x+e[3*t][3*n+3].x)+3*(e[3*t][3*n+2].x+e[3*t+2][3*n].x)+-1*e[3*t][3*n].x)/9,e[3*t+1][3*n+1].y=(-4*e[3*t][3*n].y+6*(e[3*t][3*n+1].y+e[3*t+1][3*n].y)+-2*(e[3*t][3*n+3].y+e[3*t+3][3*n].y)+3*(e[3*t+3][3*n+1].y+e[3*t+1][3*n+3].y)+-1*e[3*t+3][3*n+3].y)/9,e[3*t+1][3*n+2].y=(-4*e[3*t][3*n+3].y+6*(e[3*t][3*n+2].y+e[3*t+1][3*n+3].y)+-2*(e[3*t][3*n].y+e[3*t+3][3*n+3].y)+3*(e[3*t+3][3*n+2].y+e[3*t+1][3*n].y)+-1*e[3*t+3][3*n].y)/9,e[3*t+2][3*n+1].y=(-4*e[3*t+3][3*n].y+6*(e[3*t+3][3*n+1].y+e[3*t+2][3*n].y)+-2*(e[3*t+3][3*n+3].y+e[3*t][3*n].y)+3*(e[3*t][3*n+1].y+e[3*t+2][3*n+3].y)+-1*e[3*t][3*n+3].y)/9,e[3*t+2][3*n+2].y=(-4*e[3*t+3][3*n+3].y+6*(e[3*t+3][3*n+2].y+e[3*t+2][3*n+3].y)+-2*(e[3*t+3][3*n].y+e[3*t][3*n+3].y)+3*(e[3*t][3*n+2].y+e[3*t+2][3*n].y)+-1*e[3*t][3*n].y)/9}}this.nodes=e,this.colors=s}paintMesh(t,e){let s=(this.nodes.length-1)/3,r=(this.nodes[0].length-1)/3;if(&quot;bilinear&quot;===this.type||s&lt;2||r&lt;2){let n;for(let o=0;o&lt;s;++o)for(let s=0;s&lt;r;++s){let r=[];for(let t=3*o,e=3*o+4;t&lt;e;++t)r.push(this.nodes[t].slice(3*s,3*s+4));let i=[];i.push(this.colors[o].slice(s,s+2)),i.push(this.colors[o+1].slice(s,s+2)),(n=new m(r,i)).paint(t,e)}}else{let n,o,a,h,l,d,u;const x=s,g=r;s++,r++;let w=new Array(s);for(let t=0;t&lt;s;++t){w[t]=new Array(r);for(let e=0;e&lt;r;++e)w[t][e]=[],w[t][e][0]=this.nodes[3*t][3*e],w[t][e][1]=this.colors[t][e]}for(let t=0;t&lt;s;++t)for(let e=0;e&lt;r;++e)0!==t&amp;&amp;t!==x&amp;&amp;(n=i(w[t-1][e][0],w[t][e][0]),o=i(w[t+1][e][0],w[t][e][0]),w[t][e][2]=c(w[t-1][e][1],w[t][e][1],w[t+1][e][1],n,o)),0!==e&amp;&amp;e!==g&amp;&amp;(n=i(w[t][e-1][0],w[t][e][0]),o=i(w[t][e+1][0],w[t][e][0]),w[t][e][3]=c(w[t][e-1][1],w[t][e][1],w[t][e+1][1],n,o));for(let t=0;t&lt;r;++t){w[0][t][2]=[],w[x][t][2]=[];for(let e=0;e&lt;4;++e)n=i(w[1][t][0],w[0][t][0]),o=i(w[x][t][0],w[x-1][t][0]),w[0][t][2][e]=n&gt;0?2*(w[1][t][1][e]-w[0][t][1][e])/n-w[1][t][2][e]:0,w[x][t][2][e]=o&gt;0?2*(w[x][t][1][e]-w[x-1][t][1][e])/o-w[x-1][t][2][e]:0}for(let t=0;t&lt;s;++t){w[t][0][3]=[],w[t][g][3]=[];for(let e=0;e&lt;4;++e)n=i(w[t][1][0],w[t][0][0]),o=i(w[t][g][0],w[t][g-1][0]),w[t][0][3][e]=n&gt;0?2*(w[t][1][1][e]-w[t][0][1][e])/n-w[t][1][3][e]:0,w[t][g][3][e]=o&gt;0?2*(w[t][g][1][e]-w[t][g-1][1][e])/o-w[t][g-1][3][e]:0}for(let s=0;s&lt;x;++s)for(let r=0;r&lt;g;++r){let n=i(w[s][r][0],w[s+1][r][0]),o=i(w[s][r+1][0],w[s+1][r+1][0]),c=i(w[s][r][0],w[s][r+1][0]),x=i(w[s+1][r][0],w[s+1][r+1][0]),g=[[],[],[],[]];for(let t=0;t&lt;4;++t){(d=[])[0]=w[s][r][1][t],d[1]=w[s+1][r][1][t],d[2]=w[s][r+1][1][t],d[3]=w[s+1][r+1][1][t],d[4]=w[s][r][2][t]*n,d[5]=w[s+1][r][2][t]*n,d[6]=w[s][r+1][2][t]*o,d[7]=w[s+1][r+1][2][t]*o,d[8]=w[s][r][3][t]*c,d[9]=w[s+1][r][3][t]*x,d[10]=w[s][r+1][3][t]*c,d[11]=w[s+1][r+1][3][t]*x,d[12]=0,d[13]=0,d[14]=0,d[15]=0,u=f(d);for(let e=0;e&lt;9;++e){g[t][e]=[];for(let s=0;s&lt;9;++s)g[t][e][s]=p(u,e/8,s/8),g[t][e][s]&gt;255?g[t][e][s]=255:g[t][e][s]&lt;0&amp;&amp;(g[t][e][s]=0)}}h=[];for(let t=3*s,e=3*s+4;t&lt;e;++t)h.push(this.nodes[t].slice(3*r,3*r+4));l=y(h);for(let s=0;s&lt;8;++s)for(let r=0;r&lt;8;++r)(a=new m(l[s][r],[[[g[0][s][r],g[1][s][r],g[2][s][r],g[3][s][r]],[g[0][s][r+1],g[1][s][r+1],g[2][s][r+1],g[3][s][r+1]]],[[g[0][s+1][r],g[1][s+1][r],g[2][s+1][r],g[3][s+1][r]],[g[0][s+1][r+1],g[1][s+1][r+1],g[2][s+1][r+1],g[3][s+1][r+1]]]])).paint(t,e)}}}transform(t){if(t instanceof x)for(let e=0,s=this.nodes.length;e&lt;s;++e)for(let s=0,r=this.nodes[0].length;s&lt;r;++s)this.nodes[e][s]=this.nodes[e][s].add(t);else if(t instanceof g)for(let e=0,s=this.nodes.length;e&lt;s;++e)for(let s=0,r=this.nodes[0].length;s&lt;r;++s)this.nodes[e][s]=this.nodes[e][s].transform(t)}scale(t){for(let e=0,s=this.nodes.length;e&lt;s;++e)for(let s=0,r=this.nodes[0].length;s&lt;r;++s)this.nodes[e][s]=this.nodes[e][s].scale(t)}}document.querySelectorAll(&quot;rect,circle,ellipse,path,text&quot;).forEach((r,n)=&gt;{let o=r.getAttribute(&quot;id&quot;);o||(o=&quot;patchjs_shape&quot;+n,r.setAttribute(&quot;id&quot;,o));const i=r.style.fill.match(/^url\(\s*&quot;?\s*#([^\s&quot;]+)&quot;?\s*\)/),a=r.style.stroke.match(/^url\(\s*&quot;?\s*#([^\s&quot;]+)&quot;?\s*\)/);if(i&amp;&amp;i[1]){const a=document.getElementById(i[1]);if(a&amp;&amp;&quot;meshgradient&quot;===a.nodeName){const i=r.getBBox();let l=document.createElementNS(s,&quot;canvas&quot;);d(l,{width:i.width,height:i.height});const c=l.getContext(&quot;2d&quot;);let u=c.createImageData(i.width,i.height);const f=new b(a);&quot;objectBoundingBox&quot;===a.getAttribute(&quot;gradientUnits&quot;)&amp;&amp;f.scale(new x(i.width,i.height));const p=a.getAttribute(&quot;gradientTransform&quot;);null!=p&amp;&amp;f.transform(h(p)),&quot;userSpaceOnUse&quot;===a.getAttribute(&quot;gradientUnits&quot;)&amp;&amp;f.transform(new x(-i.x,-i.y)),f.paintMesh(u.data,l.width),c.putImageData(u,0,0);const y=document.createElementNS(t,&quot;image&quot;);d(y,{width:i.width,height:i.height,x:i.x,y:i.y});let g=l.toDataURL();y.setAttributeNS(e,&quot;xlink:href&quot;,g),r.parentNode.insertBefore(y,r),r.style.fill=&quot;none&quot;;const w=document.createElementNS(t,&quot;use&quot;);w.setAttributeNS(e,&quot;xlink:href&quot;,&quot;#&quot;+o);const m=&quot;patchjs_clip&quot;+n,M=document.createElementNS(t,&quot;clipPath&quot;);M.setAttribute(&quot;id&quot;,m),M.appendChild(w),r.parentElement.insertBefore(M,r),y.setAttribute(&quot;clip-path&quot;,&quot;url(#&quot;+m+&quot;)&quot;),u=null,l=null,g=null}}if(a&amp;&amp;a[1]){const o=document.getElementById(a[1]);if(o&amp;&amp;&quot;meshgradient&quot;===o.nodeName){const i=parseFloat(r.style.strokeWidth.slice(0,-2))*(parseFloat(r.style.strokeMiterlimit)||parseFloat(r.getAttribute(&quot;stroke-miterlimit&quot;))||1),a=r.getBBox(),l=Math.trunc(a.width+i),c=Math.trunc(a.height+i),u=Math.trunc(a.x-i/2),f=Math.trunc(a.y-i/2);let p=document.createElementNS(s,&quot;canvas&quot;);d(p,{width:l,height:c});const y=p.getContext(&quot;2d&quot;);let g=y.createImageData(l,c);const w=new b(o);&quot;objectBoundingBox&quot;===o.getAttribute(&quot;gradientUnits&quot;)&amp;&amp;w.scale(new x(l,c));const m=o.getAttribute(&quot;gradientTransform&quot;);null!=m&amp;&amp;w.transform(h(m)),&quot;userSpaceOnUse&quot;===o.getAttribute(&quot;gradientUnits&quot;)&amp;&amp;w.transform(new x(-u,-f)),w.paintMesh(g.data,p.width),y.putImageData(g,0,0);const M=document.createElementNS(t,&quot;image&quot;);d(M,{width:l,height:c,x:0,y:0});let S=p.toDataURL();M.setAttributeNS(e,&quot;xlink:href&quot;,S);const k=&quot;pattern_clip&quot;+n,A=document.createElementNS(t,&quot;pattern&quot;);d(A,{id:k,patternUnits:&quot;userSpaceOnUse&quot;,width:l,height:c,x:u,y:f}),A.appendChild(M),o.parentNode.appendChild(A),r.style.stroke=&quot;url(#&quot;+k+&quot;)&quot;,g=null,p=null,S=null}}})}();
</script>
</svg>
